<svg xmlns="http://www.w3.org/2000/svg" xmlns:xlink="http://www.w3.org/1999/xlink" viewBox="0,0,256,256" width="128px" height="128px" fill-rule="nonzero"><g fill="none" fill-rule="nonzero" stroke="none" stroke-width="1" stroke-linecap="butt" stroke-linejoin="miter" stroke-miterlimit="10" stroke-dasharray="" stroke-dashoffset="0" font-family="none" font-weight="none" font-size="none" text-anchor="none" style="mix-blend-mode: normal"><g transform="scale(2,2)"><path d="M114,21h-100c-4.4,0 -8,3.6 -8,8v65c0,1.7 1.3,3 3,3c1.7,0 3,-1.3 3,-3v-7h9v14h-2c-1.7,0 -3,1.3 -3,3c0,1.7 1.3,3 3,3h95c4.4,0 8,-3.6 8,-8v-70c0,-4.4 -3.6,-8 -8,-8zM12,47h9v14h-9zM107,47h9v14h-9zM107,67h9v14h-9zM116,29v12h-9v-14h7c1.1,0 2,0.9 2,2zM14,27h7v14h-9v-12c0,-1.1 0.9,-2 2,-2zM12,81v-14h9v14zM114,101h-7v-14h9v12c0,1.1 -0.9,2 -2,2z" fill="#1d91f0"></path><path d="M57.3,52.3l15.8,9.1c2,1.2 2,4 0,5.2l-15.8,9.1c-2,1.2 -4.5,-0.3 -4.5,-2.6v-18.2c0,-2.3 2.5,-3.8 4.5,-2.6z" fill="#28eaf0"></path></g></g></svg>